# Blender 5.0.1
# www.blender.org
mtllib cigs.mtl
o Cig
v 0.048193 -0.297217 0.609596
v 0.048193 0.080752 0.609596
v 0.048193 -0.297217 0.572014
v 0.048193 0.080752 0.572014
v 0.085775 -0.297217 0.609596
v 0.085775 0.080752 0.609596
v 0.085775 -0.297217 0.572014
v 0.085775 0.080752 0.572014
vn -1.0000 -0.0000 -0.0000
vn -0.0000 -0.0000 -1.0000
vn 1.0000 -0.0000 -0.0000
vn -0.0000 -0.0000 1.0000
vn -0.0000 -1.0000 -0.0000
vn -0.0000 1.0000 -0.0000
vt 0.548716 0.628691
vt 0.548716 1.001052
vt 0.511691 1.001052
vt 0.511691 0.628691
vt 0.547654 0.628691
vt 0.547654 1.001052
vt 0.510630 1.001052
vt 0.510630 0.628691
vt 0.547569 0.628691
vt 0.547569 1.001052
vt 0.510545 1.001052
vt 0.510545 0.628691
vt 0.547484 0.628691
vt 0.547484 1.001052
vt 0.510460 1.001052
vt 0.510460 0.628691
vt 0.713498 0.630727
vt 0.762075 0.630727
vt 0.762075 0.679304
vt 0.713498 0.679304
vt 0.716266 0.632433
vt 0.759477 0.632433
vt 0.759477 0.675644
vt 0.716266 0.675644
s 0
usemtl cig_carton_uv_test
f 1/1/1 2/2/1 4/3/1 3/4/1
f 3/5/2 4/6/2 8/7/2 7/8/2
f 7/9/3 8/10/3 6/11/3 5/12/3
f 5/13/4 6/14/4 2/15/4 1/16/4
f 3/17/5 7/18/5 5/19/5 1/20/5
f 8/21/6 4/22/6 2/23/6 6/24/6
o CigBurn0
v 0.049697 -0.297564 0.609156
v 0.049697 0.080405 0.609156
v 0.049697 -0.297564 0.571574
v 0.049697 0.080405 0.571574
v 0.087279 -0.297564 0.609156
v 0.087279 0.080405 0.609156
v 0.087279 -0.297564 0.571574
v 0.087279 0.080405 0.571574
vn -1.0000 -0.0000 -0.0000
vn -0.0000 -0.0000 -1.0000
vn 1.0000 -0.0000 -0.0000
vn -0.0000 -0.0000 1.0000
vn -0.0000 -1.0000 -0.0000
vn -0.0000 1.0000 -0.0000
vt 0.595591 0.628691
vt 0.595591 1.001052
vt 0.558566 1.001052
vt 0.558566 0.628691
vt 0.594529 0.628691
vt 0.594529 1.001052
vt 0.557505 1.001052
vt 0.557505 0.628691
vt 0.594444 0.628691
vt 0.594444 1.001052
vt 0.557420 1.001052
vt 0.557420 0.628691
vt 0.594359 0.628691
vt 0.594359 1.001052
vt 0.557335 1.001052
vt 0.557335 0.628691
vt 0.713498 0.630727
vt 0.762075 0.630727
vt 0.762075 0.679304
vt 0.713498 0.679304
vt 0.570099 0.912047
vt 0.599004 0.912047
vt 0.599004 0.940952
vt 0.570099 0.940952
s 0
usemtl cig_carton_uv_test
f 9/25/7 10/26/7 12/27/7 11/28/7
f 11/29/8 12/30/8 16/31/8 15/32/8
f 15/33/9 16/34/9 14/35/9 13/36/9
f 13/37/10 14/38/10 10/39/10 9/40/10
f 11/41/11 15/42/11 13/43/11 9/44/11
f 16/45/12 12/46/12 10/47/12 14/48/12
o CigBurn1
v 0.051824 -0.297449 0.608980
v 0.051824 -0.026948 0.608980
v 0.051824 -0.297449 0.571398
v 0.051824 -0.026948 0.571398
v 0.089406 -0.297449 0.608980
v 0.089406 -0.026948 0.608980
v 0.089406 -0.297449 0.571398
v 0.089406 -0.026948 0.571398
vn -1.0000 -0.0000 -0.0000
vn -0.0000 -0.0000 -1.0000
vn 1.0000 -0.0000 -0.0000
vn -0.0000 -0.0000 1.0000
vn -0.0000 -1.0000 -0.0000
vn -0.0000 1.0000 -0.0000
vt 0.648540 0.629627
vt 0.648540 0.941092
vt 0.611516 0.941092
vt 0.611516 0.629627
vt 0.647479 0.629627
vt 0.647479 0.941092
vt 0.610454 0.941092
vt 0.610454 0.629627
vt 0.647394 0.629627
vt 0.647394 0.941092
vt 0.610369 0.941092
vt 0.610369 0.629627
vt 0.647309 0.629627
vt 0.647309 0.941092
vt 0.610284 0.941092
vt 0.610284 0.629627
vt 0.709807 0.634418
vt 0.758384 0.634418
vt 0.758384 0.682995
vt 0.709807 0.682995
vt 0.613164 0.858980
vt 0.648165 0.858980
vt 0.648165 0.893980
vt 0.613164 0.893980
s 0
usemtl cig_carton_uv_test
f 17/49/13 18/50/13 20/51/13 19/52/13
f 19/53/14 20/54/14 24/55/14 23/56/14
f 23/57/15 24/58/15 22/59/15 21/60/15
f 21/61/16 22/62/16 18/63/16 17/64/16
f 19/65/17 23/66/17 21/67/17 17/68/17
f 24/69/18 20/70/18 18/71/18 22/72/18
o CigBurn2
v 0.051799 -0.297661 0.609828
v 0.051799 -0.122409 0.609828
v 0.051799 -0.297661 0.572246
v 0.051799 -0.122409 0.572246
v 0.089381 -0.297661 0.609828
v 0.089381 -0.122409 0.609828
v 0.089381 -0.297661 0.572246
v 0.089381 -0.122409 0.572246
vn -1.0000 -0.0000 -0.0000
vn -0.0000 -0.0000 -1.0000
vn 1.0000 -0.0000 -0.0000
vn -0.0000 -0.0000 1.0000
vn -0.0000 -1.0000 -0.0000
vn -0.0000 1.0000 -0.0000
vt 0.700083 0.625936
vt 0.700083 0.851463
vt 0.663058 0.851463
vt 0.663058 0.625936
vt 0.699021 0.625936
vt 0.699021 0.851463
vt 0.661997 0.851463
vt 0.661997 0.625936
vt 0.698937 0.625936
vt 0.698936 0.851463
vt 0.661912 0.851463
vt 0.661912 0.625936
vt 0.698852 0.625936
vt 0.698852 0.851463
vt 0.661827 0.851463
vt 0.661827 0.625936
vt 0.713498 0.630727
vt 0.762075 0.630727
vt 0.762075 0.679304
vt 0.713498 0.679304
vt 0.670896 0.767727
vt 0.701332 0.767727
vt 0.701332 0.798163
vt 0.670896 0.798163
s 0
usemtl cig_carton_uv_test
f 25/73/19 26/74/19 28/75/19 27/76/19
f 27/77/20 28/78/20 32/79/20 31/80/20
f 31/81/21 32/82/21 30/83/21 29/84/21
f 29/85/22 30/86/22 26/87/22 25/88/22
f 27/89/23 31/90/23 29/91/23 25/92/23
f 32/93/24 28/94/24 26/95/24 30/96/24
